<!--?xml version="1.0" standalone="no"?-->
              <svg id="sw-js-blob-svg" viewBox="0 0 100 100" xmlns="http://www.w3.org/2000/svg" version="1.1">
                    <defs> 
                        <linearGradient id="sw-gradient" x1="0" x2="1" y1="1" y2="0">
                            <stop id="stop1" stop-color="rgba(247, 201, 64, 1)" offset="0%"></stop>
                            <stop id="stop2" stop-color="rgba(236, 64, 40, 1)" offset="100%"></stop>
                        </linearGradient>
                    </defs>
                <path fill="url(#sw-gradient)" d="M20.9,-24.9C28.1,-18.8,35.8,-13.2,36.8,-6.6C37.7,0,32,7.6,26.6,13.8C21.2,20.1,16,25,9.8,27.4C3.6,29.9,-3.7,30,-12.7,29.2C-21.7,28.4,-32.4,26.6,-37.2,20.4C-42.1,14.2,-41.2,3.6,-38.8,-6.3C-36.4,-16.2,-32.6,-25.3,-25.9,-31.4C-19.2,-37.6,-9.6,-40.9,-1.4,-39.3C6.8,-37.6,13.6,-31,20.9,-24.9Z" width="100%" height="100%" transform="translate(50 50)" stroke-width="0" style="transition: 0.3s;"></path>
              </svg>