<svg xmlns="http://www.w3.org/2000/svg" version="1.1" xmlns:xlink="http://www.w3.org/1999/xlink" xmlns:svgjs="http://svgjs.dev/svgjs" width="100" height="100"><svg id="SvgjsSvg1007" viewBox="0 0 100 100" xmlns="http://www.w3.org/2000/svg" version="1.1">
                    <defs> 
                        <linearGradient id="SvgjsLinearGradient1006" x1="0" x2="1" y1="1" y2="0">
                            <stop id="SvgjsStop1005" stop-color="rgba(248, 55, 55, 1)" offset="0%"></stop>
                            <stop id="SvgjsStop1004" stop-color="rgba(239.511, 251, 31, 1)" offset="100%"></stop>
                        </linearGradient>
                    </defs>
                <path fill="url(#sw-gradient)" d="M13.7,-23.5C17.6,-18.8,20.6,-14.8,25.3,-10C30,-5.1,36.5,0.5,36.7,6C37,11.4,31.2,16.7,25.8,21.7C20.4,26.6,15.5,31.3,9.7,33C3.9,34.7,-2.8,33.4,-9.5,31.7C-16.3,30.1,-23.2,28.1,-26.5,23.5C-29.8,18.8,-29.5,11.5,-31.2,4.1C-32.9,-3.3,-36.6,-10.9,-34.9,-16.5C-33.2,-22.1,-26.1,-25.8,-19.4,-29.3C-12.6,-32.7,-6.3,-36,-0.7,-34.8C4.9,-33.7,9.8,-28.3,13.7,-23.5Z" width="100%" height="100%" transform="translate(50 50)" stroke-width="0" style="transition: 0.3s;" stroke="url(#sw-gradient)"></path>
              </svg><style>@media (prefers-color-scheme: light) { :root { filter: none; } }
@media (prefers-color-scheme: dark) { :root { filter: none; } }
</style></svg>