<!--?xml version="1.0" standalone="no"?-->
              <svg id="sw-js-blob-svg" viewBox="0 0 100 100" xmlns="http://www.w3.org/2000/svg" version="1.1">
                    <defs> 
                        <linearGradient id="sw-gradient" x1="0" x2="1" y1="1" y2="0">
                            <stop id="stop1" stop-color="rgba(248, 117, 55, 1)" offset="0%"></stop>
                            <stop id="stop2" stop-color="rgba(251, 168, 31, 1)" offset="100%"></stop>
                        </linearGradient>
                    </defs>
                <path fill="url(#sw-gradient)" d="M21.7,-25.4C28.5,-20.1,34.6,-13.7,37.4,-5.5C40.1,2.6,39.4,12.5,34.7,19.5C30,26.6,21.4,30.8,12.3,34.4C3.2,38.1,-6.4,41.1,-13.9,38.3C-21.3,35.5,-26.5,26.9,-29.1,18.7C-31.6,10.4,-31.4,2.4,-31.4,-6.9C-31.4,-16.2,-31.5,-26.9,-26.2,-32.5C-21,-38,-10.5,-38.4,-1.5,-36.6C7.4,-34.7,14.9,-30.7,21.7,-25.4Z" width="100%" height="100%" transform="translate(50 50)" stroke-width="0" style="transition: 0.3s;"></path>
              </svg>